<?xml version="1.0"?>
<svg xmlns="http://www.w3.org/2000/svg" height="512" viewBox="0 -7 512.001 512" width="512"><g><path d="m478 214.765625c-2.726562 0-5.371094.332031-7.914062.9375l-30.46875-51.585937c5.46875-6.035157 8.804687-14.039063 8.804687-22.804688 0-18.75-15.25-34-34-34-15.292969 0-28.257813 10.152344-32.515625 24.070312h-62.210938c-4.257812-13.917968-17.222656-24.070312-32.519531-24.070312-2.570312 0-5.074219.296875-7.484375.839844l-30.269531-51.242188c5.527344-6.050781 8.902344-14.09375 8.902344-22.910156 0-18.746094-15.253907-34-34-34-15.269531 0-28.21875 10.117188-32.5 24h-62.25c-4.28125-13.882812-17.230469-24-32.496094-24-18.75 0-34 15.253906-34 34 0 8.914062 3.453125 17.035156 9.085937 23.105469l-30.25 51.21875c-2.542968-.609375-5.1875-.941407-7.914062-.941407-18.746094 0-34 15.253907-34 34 0 18.75 15.253906 34 34 34 2.726562 0 5.371094-.332031 7.914062-.9375l30.277344 51.257813c-5.652344 6.074219-9.113281 14.203125-9.113281 23.132813 0 8.902343 3.441406 17.011718 9.0625 23.078124l-30.226563 51.175782c-2.542968-.609375-5.1875-.941406-7.914062-.941406-18.746094 0-34 15.253906-34 34 0 18.75 15.253906 34 34 34 2.726562 0 5.371094-.328126 7.914062-.9375l30.25 51.214843c-5.632812 6.070313-9.089843 14.191407-9.089843 23.105469 0 18.75 15.253906 34 34 34 15.269531 0 28.21875-10.117188 32.5-24h62.25c4.28125 13.882812 17.230469 24 32.496093 24 18.75 0 34-15.25 34-34 0-8.816406-3.375-16.859375-8.898437-22.90625l30.382813-51.441406c2.578124.625 5.261718.964844 8.027343.964844 15.269531 0 28.214844-10.117188 32.496094-24h62.25c4.28125 13.882812 17.230469 24 32.5 24 18.746094 0 34-15.25 34-34 0-8.964844-3.492187-17.121094-9.183594-23.203126l30.195313-51.117187c2.539062.605469 5.1875.9375 7.910156.9375 18.75 0 34-15.25 34-34s-15.253906-34-34-34zm-62.925781 107.382813c-15.265625 0-28.214844 10.117187-32.496094 24h-62.25c-4.28125-13.882813-17.230469-24-32.5-24-2.761719 0-5.449219.339843-8.023437.964843l-30.359376-51.398437c5.511719-6.042969 8.875-14.078125 8.875-22.882813 0-8.828125-3.382812-16.882812-8.921874-22.933593l30.363281-51.410157c2.390625.53125 4.867187.824219 7.414062.824219 15.242188 0 28.175781-10.085938 32.476563-23.929688h62.292968c4.300782 13.84375 17.234376 23.929688 32.476563 23.929688 2.757813 0 5.4375-.339844 8.007813-.964844l30.441406 51.539063c-5.507813 6.042969-8.871094 14.074219-8.871094 22.878906s3.363281 16.835937 8.871094 22.878906l-30.324219 51.339844c-2.40625-.539063-4.902344-.835937-7.472656-.835937zm-190.753907 107.382812c-15.269531 0-28.214843 10.117188-32.496093 24h-62.253907c-4.28125-13.882812-17.226562-24-32.496093-24-2.613281 0-5.15625.304688-7.605469.867188l-30.339844-51.371094c5.507813-6.042969 8.871094-14.074219 8.871094-22.878906 0-8.804688-3.363281-16.835938-8.871094-22.878907l30.304688-51.3125c2.460937.566407 5.015625.875 7.640625.875 15.292969 0 28.261719-10.148437 32.519531-24.066406h62.210938c4.261718 13.917969 17.222656 24.066406 32.519531 24.066406 2.722656 0 5.367187-.328125 7.90625-.9375l30.394531 51.460938c-5.460938 6.035156-8.792969 14.03125-8.792969 22.792969 0 8.761718 3.332031 16.757812 8.792969 22.792968l-30.429688 51.519532c-2.53125-.601563-5.164062-.929688-7.875-.929688zm-165.191406-311.027344 30.339844-51.371094c2.445312.5625 4.992188.867188 7.605469.867188 15.269531 0 28.21875-10.117188 32.496093-24h62.253907c4.28125 13.882812 17.230469 24 32.496093 24 2.710938 0 5.34375-.328125 7.875-.929688l30.152344 51.046876c-5.683594 6.082031-9.171875 14.234374-9.171875 23.195312 0 8.984375 3.511719 17.160156 9.222657 23.246094l-30.238282 51.195312c-2.519531-.59375-5.140625-.921875-7.839844-.921875-15.242187 0-28.175781 10.085938-32.476562 23.933594h-62.292969c-4.300781-13.847656-17.234375-23.933594-32.476562-23.933594-2.601563 0-5.132813.304688-7.570313.863281l-30.378906-51.433593c5.511719-6.042969 8.875-14.074219 8.875-22.878907 0-8.800781-3.363281-16.835937-8.871094-22.878906zm179.191406 130.332032c0 7.71875-6.28125 14-14 14s-14-6.28125-14-14c0-7.722657 6.28125-14 14-14s14 6.277343 14 14zm-155.246093 0c0-7.722657 6.28125-14 14-14 7.722656 0 14 6.277343 14 14 0 7.71875-6.277344 14-14 14-7.71875 0-14-6.28125-14-14zm331.347656-121.523438c7.71875 0 14 6.277344 14 14 0 7.71875-6.28125 14-14 14s-14-6.28125-14-14c0-7.722656 6.28125-14 14-14zm-113.246094 14c0 7.71875-6.28125 14-14 14s-14-6.28125-14-14c0-7.722656 6.28125-14 14-14s14 6.28125 14 14zm-76.855469-121.3125c7.71875 0 14 6.28125 14 14s-6.28125 14-14 14-14-6.28125-14-14 6.28125-14 14-14zm-127.246093 0c7.722656 0 14 6.28125 14 14s-6.277344 14-14 14c-7.71875 0-14-6.28125-14-14s6.28125-14 14-14zm-77.074219 121.382812c0-7.71875 6.277344-14 14-14 7.71875 0 14 6.28125 14 14s-6.28125 14-14 14c-7.722656 0-14-6.28125-14-14zm0 214.765626c0-7.71875 6.277344-14 14-14 7.71875 0 14 6.28125 14 14s-6.28125 14-14 14c-7.722656 0-14-6.28125-14-14zm77.074219 121.382812c-7.71875 0-14-6.28125-14-14 0-7.722656 6.28125-14 14-14 7.722656 0 14 6.277344 14 14 0 7.71875-6.277344 14-14 14zm127.246093 0c-7.71875 0-14-6.28125-14-14 0-7.722656 6.28125-14 14-14s14 6.277344 14 14c0 7.71875-6.28125 14-14 14zm63.507813-107.382812c-7.71875 0-14-6.28125-14-14s6.28125-14 14-14c7.722656 0 14 6.28125 14 14s-6.277344 14-14 14zm127.246094 0c-7.71875 0-14-6.28125-14-14s6.28125-14 14-14c7.722656 0 14 6.28125 14 14s-6.277344 14-14 14zm62.925781-107.382813c-7.722656 0-14-6.28125-14-14s6.277344-14 14-14c7.71875 0 14 6.28125 14 14s-6.28125 14-14 14zm0 0" data-original="#000000" class="active-path" data-old_color="#000000" style="fill:#FFFFFF"/><path d="m395.828125 182.566406c-1.785156-3.09375-5.085937-5-8.660156-5h-34.457031c-5.523438 0-10 4.476563-10 10 0 5.523438 4.476562 10 10 10h28.683593l18.628907 32.269532c1.851562 3.207031 5.210937 5 8.667968 5 1.695313 0 3.417969-.433594 4.992188-1.339844 4.78125-2.761719 6.421875-8.878906 3.660156-13.660156zm0 0" data-original="#000000" class="active-path" data-old_color="#000000" style="fill:#FFFFFF"/><path d="m316.359375 177.566406c-2.628906 0-5.210937 1.070313-7.070313 2.929688-1.871093 1.859375-2.929687 4.4375-2.929687 7.070312 0 2.640625 1.058594 5.210938 2.929687 7.070313 1.859376 1.859375 4.441407 2.929687 7.070313 2.929687s5.210937-1.070312 7.070313-2.929687c1.859374-1.859375 2.929687-4.429688 2.929687-7.070313 0-2.632812-1.070313-5.210937-2.929687-7.070312-1.859376-1.859375-4.441407-2.929688-7.070313-2.929688zm0 0" data-original="#000000" class="active-path" data-old_color="#000000" style="fill:#FFFFFF"/></g> </svg>
