<?xml version="1.0"?>
<svg xmlns="http://www.w3.org/2000/svg" id="Capa_1" enable-background="new 0 0 512 512" height="512px" viewBox="0 0 512 512" width="512px" class=""><g><g><path d="m512 201.14-15 190.61h-482l-15-190.61 85.33-60.95h341.34z" fill="#feb920" data-original="#FEB920" class="active-path" style="fill:#9F0202" data-old_color="#feb920"/><path d="m512 201.14-15 190.61h-241v-251.56h170.67z" fill="#fc9b28" data-original="#FC9B28" class="" style="fill:#CB1212" data-old_color="#fc9b28"/><path d="m85.33 18.29h341.34v383.99h-341.34z" fill="#e6f3ff" data-original="#E6F3FF" class=""/><path d="m256 18.29h170.67v383.99h-170.67z" fill="#bbe4f2" data-original="#BBE4F2" class=""/><g fill="#393e9f"><path d="m146.287 76.431h109.713v30h-109.713z" data-original="#393E9F" class=""/><path d="m146.29 149.57h219.42v30h-219.42z" data-original="#393E9F" class=""/><path d="m146.29 222.71h219.42v30h-219.42z" data-original="#393E9F" class=""/></g><path d="m256 149.57h109.71v30h-109.71z" fill="#340d66" data-original="#340D66"/><path d="m256 222.71h109.71v30h-109.71z" fill="#340d66" data-original="#340D66"/><path d="m512 201.14v292.57l-256-23.78-256 23.78v-292.57l204.8 146.29h102.4z" fill="#ffcf67" data-original="#FFCF67" class="" style="fill:#CF0707" data-old_color="#ffcf67"/><path d="m512 201.14v292.57l-256-23.78v-122.5h51.2z" fill="#feb920" data-original="#FEB920" class="active-path" style="fill:#9F0202" data-old_color="#feb920"/><path d="m512 493.71h-512l256-182.85z" fill="#feb920" data-original="#FEB920" class="active-path" style="fill:#9F0202" data-old_color="#feb920"/><path d="m512 493.71h-256v-182.85z" fill="#fc9b28" data-original="#FC9B28" class="" style="fill:#CB1212" data-old_color="#fc9b28"/></g></g> </svg>
