<?xml version="1.0"?>
<svg xmlns="http://www.w3.org/2000/svg" xmlns:xlink="http://www.w3.org/1999/xlink" version="1.1" id="Capa_1" x="0px" y="0px" viewBox="0 0 512 512" style="enable-background:new 0 0 512 512;" xml:space="preserve" width="512" height="512" class=""><g><g>
	<g>
		<path d="M474.105,205.331c-7.482-2.204-13.154-7.722-15.565-15.14c-2.41-7.417-1.064-15.216,3.693-21.397    c14.637-19.017,14.981-43.852,0.875-63.266c-14.107-19.416-37.832-26.762-60.441-18.719c-7.347,2.615-15.182,1.485-21.491-3.1    c-6.309-4.583-9.805-11.684-9.589-19.481c0.664-23.989-13.656-44.283-36.479-51.699c-22.824-7.412-46.336,0.586-59.899,20.383    c-4.408,6.433-11.409,10.124-19.209,10.124s-14.801-3.69-19.209-10.124c-13.563-19.799-37.076-27.8-59.899-20.383    c-22.824,7.416-37.144,27.71-36.479,51.699c0.216,7.796-3.28,14.897-9.589,19.481c-6.31,4.584-14.144,5.715-21.491,3.101    c-22.612-8.046-46.335-0.698-60.441,18.718c-14.107,19.415-13.763,44.249,0.875,63.267c4.758,6.179,6.104,13.979,3.693,21.396    c-2.41,7.417-8.083,12.937-15.565,15.14C14.875,212.113,0,232.001,0,256s14.875,43.887,37.895,50.669    c7.482,2.204,13.154,7.722,15.565,15.14c2.41,7.417,1.064,15.216-3.693,21.397c-14.637,19.017-14.981,43.852-0.875,63.266    c14.106,19.416,37.831,26.761,60.441,18.719c7.347-2.615,15.182-1.485,21.491,3.1c6.309,4.583,9.805,11.684,9.589,19.481    c-0.664,23.989,13.656,44.283,36.479,51.699c5.655,1.836,11.35,2.728,16.927,2.728c16.934-0.001,32.769-8.219,42.973-23.112    c4.408-6.433,11.409-10.124,19.209-10.124s14.801,3.69,19.209,10.124c13.562,19.797,37.075,27.798,59.899,20.383    c22.824-7.416,37.144-27.71,36.479-51.699c-0.216-7.796,3.28-14.897,9.589-19.481c6.309-4.584,14.143-5.717,21.491-3.101    c22.61,8.044,46.334,0.698,60.441-18.718c14.107-19.415,13.763-44.249-0.875-63.267c-4.758-6.179-6.104-13.979-3.693-21.396    s8.083-12.937,15.565-15.14C497.125,299.887,512,279.999,512,256S497.125,212.113,474.105,205.331z M465.757,278.335    c-16.723,4.927-29.922,17.767-35.309,34.347c-5.387,16.58-2.255,34.726,8.378,48.542c7.832,10.174,5.334,21.077,0.386,27.887    c-4.949,6.81-14.546,12.556-26.643,8.25c-16.425-5.842-34.652-3.214-48.755,7.034c-14.104,10.248-22.236,26.769-21.753,44.195    c0.354,12.834-8.074,20.188-16.081,22.789c-8.006,2.603-19.147,1.607-26.403-8.985c-9.853-14.381-26.144-22.968-43.577-22.968    s-33.724,8.587-43.577,22.968c-7.257,10.593-18.398,11.585-26.403,8.985c-8.006-2.601-16.435-9.953-16.081-22.789    c0.482-17.427-7.649-33.949-21.753-44.195c-9.153-6.65-20.041-10.091-31.047-10.091c-5.953,0-11.942,1.006-17.708,3.058    c-12.098,4.304-21.694-1.44-26.642-8.251c-4.949-6.811-7.446-17.713,0.386-27.887c10.633-13.815,13.765-31.962,8.378-48.542    c-5.387-16.58-18.587-29.42-35.31-34.347C33.927,274.707,29.538,264.418,29.538,256c0-8.418,4.388-18.707,16.705-22.335    c16.723-4.927,29.922-17.767,35.309-34.347c5.387-16.58,2.255-34.726-8.378-48.542c-7.832-10.174-5.334-21.077-0.386-27.887    c4.948-6.811,14.545-12.556,26.643-8.25c16.425,5.843,34.652,3.215,48.755-7.034c14.104-10.247,22.236-26.769,21.753-44.195    c-0.354-12.834,8.074-20.188,16.081-22.789c8.006-2.604,19.147-1.607,26.403,8.985c9.852,14.383,26.143,22.97,43.576,22.97    s33.724-8.587,43.577-22.968c7.258-10.592,18.399-11.586,26.403-8.985c8.006,2.601,16.435,9.953,16.081,22.789    c-0.482,17.427,7.65,33.949,21.753,44.195c14.104,10.246,32.328,12.878,48.756,7.033c12.094-4.305,21.693,1.44,26.642,8.251    c4.949,6.811,7.446,17.713-0.386,27.887c-10.633,13.815-13.765,31.962-8.378,48.542s18.587,29.42,35.31,34.347    c12.315,3.626,16.703,13.915,16.703,22.333C482.462,264.418,478.073,274.707,465.757,278.335z" data-original="#000000" class="active-path" style="fill:#FFE529" data-old_color="#000000"/>
	</g>
</g><g>
	<g>
		<path d="M364.073,175.864c-6.193-5.309-15.518-4.591-20.825,1.602l-109.15,127.339L166.4,254.031    c-6.525-4.893-15.782-3.57-20.677,2.954c-4.895,6.525-3.571,15.782,2.954,20.677l78.769,59.077    c2.65,1.988,5.762,2.954,8.854,2.954c4.174,0,8.311-1.763,11.221-5.157l118.154-137.846    C370.983,190.495,370.267,181.172,364.073,175.864z" data-original="#000000" class="active-path" style="fill:#FFE529" data-old_color="#000000"/>
	</g>
</g></g> </svg>
