<?xml version="1.0" encoding="iso-8859-1"?>
<!-- Generator: Adobe Illustrator 16.0.0, SVG Export Plug-In . SVG Version: 6.00 Build 0)  -->
<!DOCTYPE svg PUBLIC "-//W3C//DTD SVG 1.1//EN" "http://www.w3.org/Graphics/SVG/1.1/DTD/svg11.dtd">
<svg version="1.1" id="Capa_1" xmlns="http://www.w3.org/2000/svg" xmlns:xlink="http://www.w3.org/1999/xlink" x="0px" y="0px"
	 width="96.61px" height="96.61px" viewBox="0 0 96.61 96.61" style="enable-background:new 0 0 96.61 96.61;" xml:space="preserve"
	>
<g>
	<g>
		<path d="M0,14.627h25.219c5.688,0,10.111,1.43,13.273,4.292c3.159,2.861,4.74,7.217,4.74,13.065c0,4.527-0.917,8.223-2.75,11.084
			c-1.833,2.863-4.677,4.702-8.532,5.521v0.188c2.338,0.314,4.202,0.896,5.594,1.744c1.39,0.85,2.466,2.075,3.223,3.68
			c0.759,1.604,1.28,3.633,1.563,6.086c0.286,2.453,0.459,5.47,0.523,9.056c0.062,3.584,0.268,6.321,0.616,8.207
			c0.347,1.888,1.152,3.176,2.418,3.866v0.565h-14.96c-0.704-0.94-1.152-2.026-1.342-3.254c-0.193-1.226-0.321-2.499-0.384-3.819
			l-0.375-12.924c-0.126-2.643-0.781-4.717-1.967-6.227s-3.186-2.264-5.993-2.264h-7.213v28.486H0V14.627z M13.654,44.059h5.687
			c3.287,0,5.814-0.77,7.586-2.311c1.769-1.541,2.653-4.135,2.653-7.784c0-6.224-3.159-9.337-9.48-9.337h-6.445L13.654,44.059
			L13.654,44.059z"/>
		<path d="M82.768,34.626c0-1.193-0.144-2.468-0.428-3.821c-0.283-1.352-0.744-2.577-1.375-3.679
			c-0.632-1.1-1.438-2.012-2.416-2.737c-0.979-0.721-2.166-1.084-3.556-1.084c-3.288,0-5.657,1.824-7.11,5.472
			c-1.455,3.649-2.181,9.687-2.181,18.113c0,4.089,0.126,7.753,0.378,10.99c0.252,3.241,0.713,6.008,1.375,8.304
			c0.664,2.295,1.612,4.055,2.844,5.282c1.235,1.226,2.828,1.839,4.789,1.839c0.819,0,1.723-0.221,2.701-0.662
			c0.979-0.438,1.896-1.099,2.75-1.979c0.854-0.881,1.562-1.995,2.133-3.35c0.568-1.352,0.854-2.939,0.854-4.764v-6.887H74.52
			V45.662H96.61v36.32H86.559v-6.224h-0.188c-1.646,2.64-3.62,4.561-5.926,5.753c-2.309,1.194-5.074,1.794-8.295,1.794
			c-4.172,0-7.57-0.771-10.193-2.312c-2.624-1.541-4.678-3.819-6.16-6.838c-1.486-3.02-2.482-6.746-2.988-11.18
			c-0.506-4.436-0.758-9.575-0.758-15.426c0-5.661,0.362-10.628,1.09-14.906c0.727-4.275,1.975-7.845,3.746-10.706
			c1.769-2.86,4.107-5.016,7.016-6.462c2.904-1.445,6.541-2.17,10.902-2.17c7.455,0,12.828,1.839,16.117,5.52
			c3.285,3.679,4.93,8.947,4.93,15.802H82.768V34.626z"/>
	</g>
</g>
<g>
</g>
<g>
</g>
<g>
</g>
<g>
</g>
<g>
</g>
<g>
</g>
<g>
</g>
<g>
</g>
<g>
</g>
<g>
</g>
<g>
</g>
<g>
</g>
<g>
</g>
<g>
</g>
<g>
</g>
</svg>
